<?xml version="1.0" encoding="utf-8" ?>
<svg baseProfile="full" height="120mm" version="1.1" viewBox="0,0,120,120" width="120mm" xmlns="http://www.w3.org/2000/svg" xmlns:ev="http://www.w3.org/2001/xml-events" xmlns:xlink="http://www.w3.org/1999/xlink"><defs /><rect fill="#222222" height="120" width="120" x="0" y="0" /><text alignment-baseline="middle" fill="#FFFFFF" style="dominant-baseline: central; font-size:5.0px;                        font-family:Arial;" text-anchor="middle" x="60.0" y="60.0">2020<animate attributeName="opacity" dur="3s" keyTimes="0;0.5;1" repeatCount="indefinite" values="0;1;0" /></text><text alignment-baseline="middle" fill="#FFFFFF" style="dominant-baseline: central; font-size:5.0px;                        font-family:Arial;" text-anchor="middle" x="110" y="8">48 km<animate attributeName="opacity" dur="3s" keyTimes="0;0.5;1" repeatCount="indefinite" values="0;1;0" /></text><text alignment-baseline="middle" fill="#FFFFFF" style="dominant-baseline: central; font-size:5.0px;                        font-family:Arial;" text-anchor="middle" x="18" y="8">wansho Strava<animate attributeName="opacity" dur="3s" keyTimes="0;0.5;1" repeatCount="indefinite" values="0;1;0" /></text><line stroke="#FFFFFF" stroke-width="0.3" x1="60.0" x2="60.0" y1="15.0" y2="10.0"><animate attributeName="opacity" dur="3s" keyTimes="0;0.5;1" repeatCount="indefinite" values="0;1;0" /></line><path d="M 60.0 14.0 a46.0,46.0 0 0,1 22.65721112587776,                     5.9668789126128585" fill="none" id="id1" stroke="none"><animate attributeName="opacity" dur="3s" keyTimes="0;0.5;1" repeatCount="indefinite" values="0;1;0" /></path><text fill="#FFFFFF" style="font-size:3.75px; font-family:Arial;" text-anchor="middle"><textPath startOffset="11.845349349600859" xlink:href="#id1">January</textPath><animate attributeName="opacity" dur="3s" keyTimes="0;0.5;1" repeatCount="indefinite" values="0;1;0" /></text><line stroke="#FFFFFF" stroke-width="0.3" x1="82.83367919822305" x2="85.37075466469227" y1="21.223420802336932" y2="16.914912002596587"><animate attributeName="opacity" dur="3s" keyTimes="0;0.5;1" repeatCount="indefinite" values="0;1;0" /></line><path d="M 83.3410942915169 20.361719042388863 a46.0,46.0 0 0,1 15.683060807849085,                     15.284321961574614" fill="none" id="id2" stroke="none"><animate attributeName="opacity" dur="3s" keyTimes="0;0.5;1" repeatCount="indefinite" values="0;1;0" /></path><text fill="#FFFFFF" style="font-size:3.75px; font-family:Arial;" text-anchor="middle"><textPath startOffset="11.0556593929608" xlink:href="#id2">February</textPath><animate attributeName="opacity" dur="3s" keyTimes="0;0.5;1" repeatCount="indefinite" values="0;1;0" /></text><line stroke="#FFFFFF" stroke-width="0.3" x1="98.57915826343495" x2="102.86573140381662" y1="36.834323932057615" y2="34.260359924508464"><animate attributeName="opacity" dur="3s" keyTimes="0;0.5;1" repeatCount="indefinite" values="0;1;0" /></line><path d="M 99.43647289151129 36.31953113054779 a46.0,46.0 0 0,1 6.548276614147114,                     22.496064841322738" fill="none" id="id3" stroke="none"><animate attributeName="opacity" dur="3s" keyTimes="0;0.5;1" repeatCount="indefinite" values="0;1;0" /></path><text fill="#FFFFFF" style="font-size:3.75px; font-family:Arial;" text-anchor="middle"><textPath startOffset="11.845349349600857" xlink:href="#id3">March</textPath><animate attributeName="opacity" dur="3s" keyTimes="0;0.5;1" repeatCount="indefinite" values="0;1;0" /></text><line stroke="#FFFFFF" stroke-width="0.3" x1="104.99834225614694" x2="109.9981580623855" y1="59.613743351306084" y2="59.57082594589565"><animate attributeName="opacity" dur="3s" keyTimes="0;0.5;1" repeatCount="indefinite" values="0;1;0" /></line><path d="M 105.99830541739465 59.60515987022399 a46.0,46.0 0 0,1 -5.395080694419475,                     22.01377030903273" fill="none" id="id4" stroke="none"><animate attributeName="opacity" dur="3s" keyTimes="0;0.5;1" repeatCount="indefinite" values="0;1;0" /></path><text fill="#FFFFFF" style="font-size:3.75px; font-family:Arial;" text-anchor="middle"><textPath startOffset="11.450504371280832" xlink:href="#id4">April</textPath><animate attributeName="opacity" dur="3s" keyTimes="0;0.5;1" repeatCount="indefinite" values="0;1;0" /></text><line stroke="#FFFFFF" stroke-width="0.3" x1="99.35164310239679" x2="103.72404789155199" y1="81.82769307878382" y2="84.2529923097598"><animate attributeName="opacity" dur="3s" keyTimes="0;0.5;1" repeatCount="indefinite" values="0;1;0" /></line><path d="M 100.22612406022782 82.31275292497902 a46.0,46.0 0 0,1 -16.208025330693875,                     16.91900631952032" fill="none" id="id5" stroke="none"><animate attributeName="opacity" dur="3s" keyTimes="0;0.5;1" repeatCount="indefinite" values="0;1;0" /></path><text fill="#FFFFFF" style="font-size:3.75px; font-family:Arial;" text-anchor="middle"><textPath startOffset="11.845349349600857" xlink:href="#id5">May</textPath><animate attributeName="opacity" dur="3s" keyTimes="0;0.5;1" repeatCount="indefinite" values="0;1;0" /></text><line stroke="#FFFFFF" stroke-width="0.3" x1="82.83367919822307" x2="85.3707546646923" y1="98.77657919766307" y2="103.0850879974034"><animate attributeName="opacity" dur="3s" keyTimes="0;0.5;1" repeatCount="indefinite" values="0;1;0" /></line><path d="M 83.34109429151691 99.63828095761113 a46.0,46.0 0 0,1 -21.762024667907713,                     6.334608217682115" fill="none" id="id6" stroke="none"><animate attributeName="opacity" dur="3s" keyTimes="0;0.5;1" repeatCount="indefinite" values="0;1;0" /></path><text fill="#FFFFFF" style="font-size:3.75px; font-family:Arial;" text-anchor="middle"><textPath startOffset="11.450504371280841" xlink:href="#id6">June</textPath><animate attributeName="opacity" dur="3s" keyTimes="0;0.5;1" repeatCount="indefinite" values="0;1;0" /></text><line stroke="#FFFFFF" stroke-width="0.3" x1="60.77248483896183" x2="60.858316487735365" y1="104.99336914672621" y2="109.99263238525134"><animate attributeName="opacity" dur="3s" keyTimes="0;0.5;1" repeatCount="indefinite" values="0;1;0" /></line><path d="M 60.78965116871654 105.99322179443124 a46.0,46.0 0 0,1 -22.756301944840992,                     -5.577058521802416" fill="none" id="id7" stroke="none"><animate attributeName="opacity" dur="3s" keyTimes="0;0.5;1" repeatCount="indefinite" values="0;1;0" /></path><text fill="#FFFFFF" style="font-size:3.75px; font-family:Arial;" text-anchor="middle"><textPath startOffset="11.845349349600857" xlink:href="#id7">July</textPath><animate attributeName="opacity" dur="3s" keyTimes="0;0.5;1" repeatCount="indefinite" values="0;1;0" /></text><line stroke="#FFFFFF" stroke-width="0.3" x1="37.83533694207611" x2="35.372596602306785" y1="99.16283584635698" y2="103.51426205150777"><animate attributeName="opacity" dur="3s" keyTimes="0;0.5;1" repeatCount="indefinite" values="0;1;0" /></line><path d="M 37.34278887412225 100.03312108738714 a46.0,46.0 0 0,1 -16.779261765633525,                     -16.35265221793492" fill="none" id="id8" stroke="none"><animate attributeName="opacity" dur="3s" keyTimes="0;0.5;1" repeatCount="indefinite" values="0;1;0" /></path><text fill="#FFFFFF" style="font-size:3.75px; font-family:Arial;" text-anchor="middle"><textPath startOffset="11.845349349600857" xlink:href="#id8">August</textPath><animate attributeName="opacity" dur="3s" keyTimes="0;0.5;1" repeatCount="indefinite" values="0;1;0" /></text><line stroke="#FFFFFF" stroke-width="0.3" x1="21.028856829700274" x2="16.698729810778083" y1="82.50000000000003" y2="85.00000000000003"><animate attributeName="opacity" dur="3s" keyTimes="0;0.5;1" repeatCount="indefinite" values="0;1;0" /></line><path d="M 20.162831425915833 83.00000000000003 a46.0,46.0 0 0,1 -6.147580931574234,                     -21.815595971870525" fill="none" id="id9" stroke="none"><animate attributeName="opacity" dur="3s" keyTimes="0;0.5;1" repeatCount="indefinite" values="0;1;0" /></path><text fill="#FFFFFF" style="font-size:3.75px; font-family:Arial;" text-anchor="middle"><textPath startOffset="11.450504371280832" xlink:href="#id9">September</textPath><animate attributeName="opacity" dur="3s" keyTimes="0;0.5;1" repeatCount="indefinite" values="0;1;0" /></text><line stroke="#FFFFFF" stroke-width="0.3" x1="15.001657743853052" x2="10.001841937614508" y1="60.3862566486939" y2="60.42917405410434"><animate attributeName="opacity" dur="3s" keyTimes="0;0.5;1" repeatCount="indefinite" values="0;1;0" /></line><path d="M 14.001694582605346 60.39484012977599 a46.0,46.0 0 0,1 5.772181357166817,                     -22.707593054754987" fill="none" id="id10" stroke="none"><animate attributeName="opacity" dur="3s" keyTimes="0;0.5;1" repeatCount="indefinite" values="0;1;0" /></path><text fill="#FFFFFF" style="font-size:3.75px; font-family:Arial;" text-anchor="middle"><textPath startOffset="11.845349349600838" xlink:href="#id10">October</textPath><animate attributeName="opacity" dur="3s" keyTimes="0;0.5;1" repeatCount="indefinite" values="0;1;0" /></text><line stroke="#FFFFFF" stroke-width="0.3" x1="21.02885682970026" x2="16.69872981077807" y1="37.5" y2="34.99999999999999"><animate attributeName="opacity" dur="3s" keyTimes="0;0.5;1" repeatCount="indefinite" values="0;1;0" /></line><path d="M 20.162831425915826 37.0 a46.0,46.0 0 0,1 15.819069844550235,                     -16.231759244499344" fill="none" id="id11" stroke="none"><animate attributeName="opacity" dur="3s" keyTimes="0;0.5;1" repeatCount="indefinite" values="0;1;0" /></path><text fill="#FFFFFF" style="font-size:3.75px; font-family:Arial;" text-anchor="middle"><textPath startOffset="11.450504371280832" xlink:href="#id11">November</textPath><animate attributeName="opacity" dur="3s" keyTimes="0;0.5;1" repeatCount="indefinite" values="0;1;0" /></text><path d="M 50.56953909116034 54.33727918339187 l -0.0 0.0 a11.0,11.0 0 0,0 0.09859773290431673,-0.16105198679190724 l -0.0 0.0" fill="#4dd2ff" stroke="none"><animate attributeName="opacity" dur="3s" keyTimes="0;0.5;1" repeatCount="indefinite" values="0;1;0" /></path><path d="M 50.66813682406466 54.17622719659996 l -20.64674727675695 -12.885097327522585 a35.337500000000006,35.337500000000006 0 0,0 0.32558005105571586,-0.5118659176686833 l 20.422515101516247 13.237627550975336" fill="#ffdd14" stroke="none"><animate attributeName="opacity" dur="3s" keyTimes="0;0.5;1" repeatCount="indefinite" values="0;1;0" /></path><path d="M 50.873552850921186 53.85931905770449 l -18.549503830502683 -12.480934015215624 a33.3575,33.3575 0 0,0 0.3237428978182469,-0.4723505630905389 l 18.3325186895907 12.797521820485704" fill="#f4ff19" stroke="none"><animate attributeName="opacity" dur="3s" keyTimes="0;0.5;1" repeatCount="indefinite" values="0;1;0" /></path><path d="M 51.089726508597465 53.549649132922355 l -18.544506703981515 -13.424792742105351 a33.89375,33.89375 0 0,0 0.34522879398718775,-0.4683691621532601 l 18.311319709259948 13.741155685304205" fill="#fffe18" stroke="none"><animate attributeName="opacity" dur="3s" keyTimes="0;0.5;1" repeatCount="indefinite" values="0;1;0" /></path><path d="M 51.20176830786309 53.39764291396795 l -22.996378085322856 -17.256910833616274 a39.75125,39.75125 0 0,0 0.41426106953307684,-0.542281037977776 l 22.696751694318476 17.64913139757737" fill="#ff710a" stroke="none"><animate attributeName="opacity" dur="3s" keyTimes="0;0.5;1" repeatCount="indefinite" values="0;1;0" /></path><path d="M 51.433596760817636 53.09951193438277 l -12.078628567247137 -9.729688172520294 a26.509999999999998,26.509999999999998 0 0,0 0.2885211819992343,-0.351948929151093 l 11.909825718027667 9.935600201608693" fill="#ff8700" stroke="none"><animate attributeName="opacity" dur="3s" keyTimes="0;0.5;1" repeatCount="indefinite" values="0;1;0" /></path><path d="M 51.67552270318891 52.809514777507935 l -7.46081277726694 -6.444472380658511 a20.85875,20.85875 0 0,0 0.23638817712636706,-0.2689663523906472 l 7.349085471400358 6.5715975452360285" fill="#36ff6e" stroke="none"><animate attributeName="opacity" dur="3s" keyTimes="0;0.5;1" repeatCount="indefinite" values="0;1;0" /></path><path d="M 52.18851482716211 52.25527925651714 l -7.645491112915088 -7.580145427683851 a21.76625,21.76625 0 0,0 0.2653493270700404,-0.2630813977314351 l 7.514241256253154 7.71027349743983" fill="#34ff5b" stroke="none"><animate attributeName="opacity" dur="3s" keyTimes="0;0.5;1" repeatCount="indefinite" values="0;1;0" /></path><path d="M 53.17329569989835 51.374682127656186 l -5.324829354079286 -6.727747940428174 a19.58,19.58 0 0,0 0.26534634685913855,-0.2063349242506972 l 5.208553988601686 6.818164367908817" fill="#39ff8a" stroke="none"><animate attributeName="opacity" dur="3s" keyTimes="0;0.5;1" repeatCount="indefinite" values="0;1;0" /></path><path d="M 53.9378819591794 50.82118063914768 l -5.546838007350846 -8.398619715179873 a21.064999999999998,21.064999999999998 0 0,0 0.3034507217383689,-0.1966930916432006 l 5.401847192525463 8.492601009620358" fill="#36ff6a" stroke="none"><animate attributeName="opacity" dur="3s" keyTimes="0;0.5;1" repeatCount="indefinite" values="0;1;0" /></path><line stroke="#FFFFFF" stroke-width="0.3" x1="37.166320801776955" x2="34.62924533530773" y1="21.223420802336932" y2="16.914912002596587"><animate attributeName="opacity" dur="3s" keyTimes="0;0.5;1" repeatCount="indefinite" values="0;1;0" /></line><path d="M 36.658905708483104 20.361719042388863 a46.0,46.0 0 0,1 22.551443122800347,                     -6.354940836820101" fill="none" id="id12" stroke="none"><animate attributeName="opacity" dur="3s" keyTimes="0;0.5;1" repeatCount="indefinite" values="0;1;0" /></path><text fill="#FFFFFF" style="font-size:3.75px; font-family:Arial;" text-anchor="middle"><textPath startOffset="11.845349349600857" xlink:href="#id12">December</textPath><animate attributeName="opacity" dur="3s" keyTimes="0;0.5;1" repeatCount="indefinite" values="0;1;0" /></text><path d="M 55.768683903222986 49.84638172427407 l -2.6022593995178642 -6.244475239571451 a17.765,17.765 0 0,0 0.28250202366437227,-0.11489111366042334 l 2.4946812295156415 6.288226344773408" fill="#3dffaf" stroke="none"><animate attributeName="opacity" dur="3s" keyTimes="0;0.5;1" repeatCount="indefinite" values="0;1;0" /></path><path d="M 55.943607756885136 49.775241715815596 l -5.932473655555489 -14.953708990619687 a27.0875,27.0875 0 0,0 0.4336937542717392,-0.16776206095527743 l 5.674899192358567 15.053344326313939" fill="#ff8300" stroke="none"><animate attributeName="opacity" dur="3s" keyTimes="0;0.5;1" repeatCount="indefinite" values="0;1;0" /></path><path d="M 56.6547368443973 49.521010811162796 l -2.8978342085408433 -9.07742438483023 a20.528750000000002,20.528750000000002 0 0,0 0.3366317789493719,-0.10428938562211418 l 2.741581145706339 9.125831983112967" fill="#37ff76" stroke="none"><animate attributeName="opacity" dur="3s" keyTimes="0;0.5;1" repeatCount="indefinite" values="0;1;0" /></path><path d="M 57.93509578019081 49.195548576488754 l -1.9513344877196876 -10.210206595218127 a21.395,21.395 0 0,0 0.36133635122264435,-0.06584751993992977 l 1.7757751808274516 10.242199349122103" fill="#35ff63" stroke="none"><animate attributeName="opacity" dur="3s" keyTimes="0;0.5;1" repeatCount="indefinite" values="0;1;0" /></path><path d="M 58.49403336284177 49.10357560996423 l -0.6607428620531731 -4.780806201128192 a15.82625,15.82625 0 0,0 0.26943977958575316,-0.03488437383969064 l 0.5785766043341468 4.791444268215709" fill="#42ffd5" stroke="none"><animate attributeName="opacity" dur="3s" keyTimes="0;0.5;1" repeatCount="indefinite" values="0;1;0" /></path><path d="M 58.86896903148903 49.05830136823952 l -0.11027551942981943 -1.0668156165966465 a12.0725,12.0725 0 0,0 0.20632502481116188,-0.019539194364936657 l 0.09194596141698273 1.0685514447976319" fill="#4ae4ff" stroke="none"><animate attributeName="opacity" dur="3s" keyTimes="0;0.5;1" repeatCount="indefinite" values="0;1;0" /></path><text alignment-baseline="middle" fill="#FFFFFF" style="dominant-baseline: central; font-size:5.0px;                        font-family:Arial;" text-anchor="middle" x="60.0" y="60.0">2021<animate attributeName="opacity" dur="3s" keyTimes="0;0.5;1" repeatCount="indefinite" values="0;0;1" /></text><text alignment-baseline="middle" fill="#FFFFFF" style="dominant-baseline: central; font-size:5.0px;                        font-family:Arial;" text-anchor="middle" x="109" y="8">230 km<animate attributeName="opacity" dur="3s" keyTimes="0;0.5;1" repeatCount="indefinite" values="0;0;1" /></text><text alignment-baseline="middle" fill="#FFFFFF" style="dominant-baseline: central; font-size:5.0px;                        font-family:Arial;" text-anchor="middle" x="18" y="8">wansho Strava<animate attributeName="opacity" dur="3s" keyTimes="0;0.5;1" repeatCount="indefinite" values="0;0;1" /></text><line stroke="#FFFFFF" stroke-width="0.3" x1="60.0" x2="60.0" y1="15.0" y2="10.0"><animate attributeName="opacity" dur="3s" keyTimes="0;0.5;1" repeatCount="indefinite" values="0;0;1" /></line><path d="M 60.0 14.0 a46.0,46.0 0 0,1 22.71367530735895,                     5.998888090055893" fill="none" id="id13" stroke="none"><animate attributeName="opacity" dur="3s" keyTimes="0;0.5;1" repeatCount="indefinite" values="0;0;1" /></path><text fill="#FFFFFF" style="font-size:3.75px; font-family:Arial;" text-anchor="middle"><textPath startOffset="11.877802361517572" xlink:href="#id13">January</textPath><animate attributeName="opacity" dur="3s" keyTimes="0;0.5;1" repeatCount="indefinite" values="0;0;1" /></text><path d="M 60.56781633945579 49.01466502082677 l 0.29171564439541287 -5.6437158455502505 a16.65125,16.65125 0 0,0 0.2861144254409244,0.017259203487200555 l -0.3888197144666102 5.637858262863843" fill="#40ffc5" stroke="none"><animate attributeName="opacity" dur="3s" keyTimes="0;0.5;1" repeatCount="indefinite" values="0;0;1" /></path><path d="M 61.69739702730709 49.13175067769933 l 1.203030143103902 -7.702871707180603 a18.79625,18.79625 0 0,0 0.31924159091010323,0.05267759786767047 l -1.3354441753248447 7.681022257296938" fill="#3bff9a" stroke="none"><animate attributeName="opacity" dur="3s" keyTimes="0;0.5;1" repeatCount="indefinite" values="0;0;1" /></path><path d="M 62.80888624627806 49.36467405034195 l 2.053998067590829 -7.77708210068745 a19.04375,19.04375 0 0,0 0.316218848671236,0.08643455657806051 l -2.187563429664961 7.740573641771808" fill="#3aff95" stroke="none"><animate attributeName="opacity" dur="3s" keyTimes="0;0.5;1" repeatCount="indefinite" values="0;0;1" /></path><path d="M 62.99153973287516 49.41460014800437 l 2.5914212936031085 -9.16960262179122 a20.528750000000002,20.528750000000002 0 0,0 0.33922271751953315,0.09902841334334124 l -2.7488769823111037 9.123636988538083" fill="#37ff76" stroke="none"><animate attributeName="opacity" dur="3s" keyTimes="0;0.5;1" repeatCount="indefinite" values="0;0;1" /></path><path d="M 64.0669699717974 49.77944447456508 l 4.666848042637523 -11.72808746543657 a23.622500000000002,23.622500000000002 0 0,0 0.3765157995546818,0.15359024838706659 l -4.868036345309931 11.646017705239057" fill="#30ff31" stroke="none"><animate attributeName="opacity" dur="3s" keyTimes="0;0.5;1" repeatCount="indefinite" values="0;0;1" /></path><path d="M 65.43153105175975 50.43451671718728 l 6.008631226009224 -10.581815881611575 a23.168750000000003,23.168750000000003 0 0,0 0.3451076526044726,0.19990862754615668 l -6.189889548000298 10.476819362099203" fill="#31ff3c" stroke="none"><animate attributeName="opacity" dur="3s" keyTimes="0;0.5;1" repeatCount="indefinite" values="0;0;1" /></path><line stroke="#FFFFFF" stroke-width="0.3" x1="82.8901924733447" x2="85.43354719260522" y1="21.256754284995253" y2="16.951949205550285"><animate attributeName="opacity" dur="3s" keyTimes="0;0.5;1" repeatCount="indefinite" values="0;0;1" /></line><path d="M 83.39886341719681 20.395793269106264 a46.0,46.0 0 0,1 15.269583241989189,                     14.68932698071859" fill="none" id="id14" stroke="none"><animate attributeName="opacity" dur="3s" keyTimes="0;0.5;1" repeatCount="indefinite" values="0;0;1" /></path><text fill="#FFFFFF" style="font-size:3.75px; font-family:Arial;" text-anchor="middle"><textPath startOffset="10.690022125365816" xlink:href="#id14">February</textPath><animate attributeName="opacity" dur="3s" keyTimes="0;0.5;1" repeatCount="indefinite" values="0;0;1" /></text><path d="M 65.91805688692129 50.72764308909739 l 6.169574304615452 -9.666432079615973 a22.4675,22.4675 0 0,0 0.32420920705674694,0.2108746867355145 l -6.335051953749678 9.5588008135588" fill="#32ff4b" stroke="none"><animate attributeName="opacity" dur="3s" keyTimes="0;0.5;1" repeatCount="indefinite" values="0;0;1" /></path><path d="M 68.2166929646621 52.68659062239285 l 11.80122527049595 -10.50388421858827 a26.79875,26.79875 0 0,0 0.30372954980681915,0.34721538039077393 l -11.980283891700688 10.299189261138809" fill="#ff8500" stroke="none"><animate attributeName="opacity" dur="3s" keyTimes="0;0.5;1" repeatCount="indefinite" values="0;0;1" /></path><path d="M 69.14287689002389 53.883808196772506 l 10.422879654627229 -6.972458655679339 a23.54,23.54 0 0,0 0.2224007239844975,0.3387315606650264 l -10.541354806656354 6.7920128710260075" fill="#30ff33" stroke="none"><animate attributeName="opacity" dur="3s" keyTimes="0;0.5;1" repeatCount="indefinite" values="0;0;1" /></path><line stroke="#FFFFFF" stroke-width="0.3" x1="98.24176911873874" x2="102.49085457637639" y1="36.281503111093244" y2="33.64611456788138"><animate attributeName="opacity" dur="3s" keyTimes="0;0.5;1" repeatCount="indefinite" values="0;0;1" /></line><path d="M 99.09158621026629 35.75442540245088 a46.0,46.0 0 0,1 6.87391430675916,                     22.464349676509087" fill="none" id="id15" stroke="none"><animate attributeName="opacity" dur="3s" keyTimes="0;0.5;1" repeatCount="indefinite" values="0;0;1" /></path><text fill="#FFFFFF" style="font-size:3.75px; font-family:Arial;" text-anchor="middle"><textPath startOffset="11.877802361517572" xlink:href="#id15">March</textPath><animate attributeName="opacity" dur="3s" keyTimes="0;0.5;1" repeatCount="indefinite" values="0;0;1" /></text><path d="M 69.89593956617468 55.196836448483296 l 8.238369688840418 -3.9986336566376544 a20.1575,20.1575 0 0,0 0.14882167655403808,0.3134564050821813 l -8.305978990740137 3.85623122431519" fill="#38ff7d" stroke="none"><animate attributeName="opacity" dur="3s" keyTimes="0;0.5;1" repeatCount="indefinite" values="0;0;1" /></path><path d="M 70.20295851937117 55.88908313730484 l 8.953096100748196 -3.6073295470150026 a20.6525,20.6525 0 0,0 0.1300187481461039,0.3308835322090387 l -9.013863851213285 3.4526822503367436" fill="#36ff73" stroke="none"><animate attributeName="opacity" dur="3s" keyTimes="0;0.5;1" repeatCount="indefinite" values="0;0;1" /></path><path d="M 70.33841663736085 56.242721539153585 l 7.05596935499878 -2.564342549527676 a18.5075,18.5075 0 0,0 0.10623914794821189,0.30035237756711575 l -7.099064878609274 2.442505700975191" fill="#3bffa0" stroke="none"><animate attributeName="opacity" dur="3s" keyTimes="0;0.5;1" repeatCount="indefinite" values="0;0;1" /></path><line stroke="#FFFFFF" stroke-width="0.3" x1="104.98958258909508" x2="109.98842509899454" y1="59.03177561537" y2="58.924195128188884"><animate attributeName="opacity" dur="3s" keyTimes="0;0.5;1" repeatCount="indefinite" values="0;0;1" /></line><path d="M 105.98935109107498 59.010259517933775 a46.0,46.0 0 0,1 -5.138714250118292,                     22.137446496863006" fill="none" id="id16" stroke="none"><animate attributeName="opacity" dur="3s" keyTimes="0;0.5;1" repeatCount="indefinite" values="0;0;1" /></path><text fill="#FFFFFF" style="font-size:3.75px; font-family:Arial;" text-anchor="middle"><textPath startOffset="11.48187561613365" xlink:href="#id16">April</textPath><animate attributeName="opacity" dur="3s" keyTimes="0;0.5;1" repeatCount="indefinite" values="0;0;1" /></text><path d="M 70.98767687143537 60.52053527154675 l 16.15188500100999 0.7651868491737194 a27.169999999999998,27.169999999999998 0 0,0 -0.026152611732658516,0.46697245081745464 l -16.13632049119339 -1.0431016275954434" fill="#ff8200" stroke="none"><animate attributeName="opacity" dur="3s" keyTimes="0;0.5;1" repeatCount="indefinite" values="0;0;1" /></path><path d="M 70.94615842210767 61.087021526061584 l 15.598275751503431 1.5490056746377594 a26.674999999999997,26.674999999999997 0 0,0 -0.04930771940283052,0.456528243510628 l -15.569301112266716 -1.8172748486594685" fill="#ff8600" stroke="none"><animate attributeName="opacity" dur="3s" keyTimes="0;0.5;1" repeatCount="indefinite" values="0;0;1" /></path><path d="M 70.4904909629349 63.30901788399234 l 14.988288963293243 4.727759301754061 a26.716250000000002,26.716250000000002 0 0,0 -0.14211486422796152,0.43738457802229663 l -14.904687681866294 -4.9850575892885365" fill="#ff8600" stroke="none"><animate attributeName="opacity" dur="3s" keyTimes="0;0.5;1" repeatCount="indefinite" values="0;0;1" /></path><path d="M 70.01665093103638 64.54606468561194 l 14.273727576726838 6.478142176997019 a26.674999999999997,26.674999999999997 0 0,0 -0.1933624807522618,0.41648558120653295 l -14.160102201439427 -6.722881126778177" fill="#ff8600" stroke="none"><animate attributeName="opacity" dur="3s" keyTimes="0;0.5;1" repeatCount="indefinite" values="0;0;1" /></path><line stroke="#FFFFFF" stroke-width="0.3" x1="99.6005491788091" x2="104.00061019867678" y1="81.37279824301724" y2="83.7475536033525"><animate attributeName="opacity" dur="3s" keyTimes="0;0.5;1" repeatCount="indefinite" values="0;0;1" /></line><path d="M 100.48056138278264 81.8477493150843 a46.0,46.0 0 0,1 -16.06697916733371,                     17.139133137985933" fill="none" id="id17" stroke="none"><animate attributeName="opacity" dur="3s" keyTimes="0;0.5;1" repeatCount="indefinite" values="0;0;1" /></path><text fill="#FFFFFF" style="font-size:3.75px; font-family:Arial;" text-anchor="middle"><textPath startOffset="11.877802361517583" xlink:href="#id17">May</textPath><animate attributeName="opacity" dur="3s" keyTimes="0;0.5;1" repeatCount="indefinite" values="0;0;1" /></text><path d="M 69.58876950580255 65.39031533071966 l 14.742733115171403 8.287609820981464 a27.912499999999998,27.912499999999998 0 0,0 -0.2390479717807924,0.4168002882133228 l -14.597891240644126 -8.540153837977712" fill="#80ff26" stroke="none"><animate attributeName="opacity" dur="3s" keyTimes="0;0.5;1" repeatCount="indefinite" values="0;0;1" /></path><path d="M 69.39754386724809 65.71718193371066 l 12.898128957798013 7.846832204017895 a26.0975,26.0975 0 0,0 -0.23678555077453992,0.38177370200927785 l -12.761147643387874 -8.067689698647076" fill="#ff8a00" stroke="none"><animate attributeName="opacity" dur="3s" keyTimes="0;0.5;1" repeatCount="indefinite" values="0;0;1" /></path><path d="M 67.76141971117896 67.79489346090905 l 10.768969849260806 10.815414677011317 a26.262500000000003,26.262500000000003 0 0,0 -0.32309133932050976,0.31621287723790253 l -10.581204725362499 -10.999182370065805" fill="#ff8900" stroke="none"><animate attributeName="opacity" dur="3s" keyTimes="0;0.5;1" repeatCount="indefinite" values="0;0;1" /></path><path d="M 66.7681305995966 68.67135561413578 l 8.933932391467517 11.44618941065923 a25.52,25.52 0 0,0 -0.34861689756409714,0.2673045712650229 l -8.735581398025875 -11.598276494310019" fill="#ff8f00" stroke="none"><animate attributeName="opacity" dur="3s" keyTimes="0;0.5;1" repeatCount="indefinite" values="0;0;1" /></path><path d="M 65.99764482394716 69.22107675739552 l 8.186785184687874 12.586769773844882 a26.015,26.015 0 0,0 -0.3774878057023383,0.2409305778166035 l -7.96891167315143 -12.72582695723586" fill="#ff8b00" stroke="none"><animate attributeName="opacity" dur="3s" keyTimes="0;0.5;1" repeatCount="indefinite" values="0;0;1" /></path><line stroke="#FFFFFF" stroke-width="0.3" x1="83.22280759571338" x2="85.80311955079264" y1="98.54479481554516" y2="102.82754979505017"><animate attributeName="opacity" dur="3s" keyTimes="0;0.5;1" repeatCount="indefinite" values="0;0;1" /></line><path d="M 83.73886998672923 99.40134581144616 a46.0,46.0 0 0,1 -21.759847268520826,                     6.556063483256414" fill="none" id="id18" stroke="none"><animate attributeName="opacity" dur="3s" keyTimes="0;0.5;1" repeatCount="indefinite" values="0;0;1" /></path><text fill="#FFFFFF" style="font-size:3.75px; font-family:Arial;" text-anchor="middle"><textPath startOffset="11.481875616133655" xlink:href="#id18">June</textPath><animate attributeName="opacity" dur="3s" keyTimes="0;0.5;1" repeatCount="indefinite" values="0;0;1" /></text><path d="M 65.1827545844125 69.70252827451439 l 7.191071985872347 13.462257980888719 a26.262500000000003,26.262500000000003 0 0,0 -0.40057703201894806,0.20956297071258934 l -6.958275909672854 -13.584045885334255" fill="#ff8900" stroke="none"><animate attributeName="opacity" dur="3s" keyTimes="0;0.5;1" repeatCount="indefinite" values="0;0;1" /></path><path d="M 64.84570662785545 69.87517732887657 l 6.341818549205815 12.924138329167214 a25.396250000000002,25.396250000000002 0 0,0 -0.3941102931094805,0.18919689073562135 l -6.118411144286688 -13.031387459974033" fill="#ff9000" stroke="none"><animate attributeName="opacity" dur="3s" keyTimes="0;0.5;1" repeatCount="indefinite" values="0;0;1" /></path><path d="M 63.80173543937807 70.3221513091495 l 2.6944799926592062 7.315824740359712 a18.79625,18.79625 0 0,0 -0.30457124802444513,0.10920841341560236 l -2.5681508795429955 -7.361121865748627" fill="#3bff9a" stroke="none"><animate attributeName="opacity" dur="3s" keyTimes="0;0.5;1" repeatCount="indefinite" values="0;0;1" /></path><path d="M 63.62349330446983 70.38606259717619 l 6.794049945880939 19.47386736970536 a31.625,31.625 0 0,0 -0.5155330807552475,0.1748968113974695 l -6.45783271930143 -19.587930507573276" fill="#cdff1d" stroke="none"><animate attributeName="opacity" dur="3s" keyTimes="0;0.5;1" repeatCount="indefinite" values="0;0;1" /></path><path d="M 62.533362372536736 70.70430170956588 l 1.9000217794025545 8.02822628217441 a19.25,19.25 0 0,0 -0.32310652972320975,0.07353799422045595 l -1.7615475523783217 -8.059742565411748" fill="#3aff90" stroke="none"><animate attributeName="opacity" dur="3s" keyTimes="0;0.5;1" repeatCount="indefinite" values="0;0;1" /></path><path d="M 62.348730069837764 70.746323420549 l 3.28528618518557 15.03141988449291 a26.38625,26.38625 0 0,0 -0.44455621670757495,0.09316107755020489 l -3.026058250586416 -15.085743618614162" fill="#ff8800" stroke="none"><animate attributeName="opacity" dur="3s" keyTimes="0;0.5;1" repeatCount="indefinite" values="0;0;1" /></path><path d="M 61.03990424798919 70.95073509655923 l 0.7799281859918964 8.213051322419421 a19.25,19.25 0 0,0 -0.33014270873692014,0.028486102077891873 l -0.6384384536760734 -8.225259651881375" fill="#3aff90" stroke="none"><animate attributeName="opacity" dur="3s" keyTimes="0;0.5;1" repeatCount="indefinite" values="0;0;1" /></path><line stroke="#FFFFFF" stroke-width="0.3" x1="61.161829810220986" x2="61.290922011356656" y1="104.98499918297301" y2="109.98333242552556"><animate attributeName="opacity" dur="3s" keyTimes="0;0.5;1" repeatCount="indefinite" values="0;0;1" /></line><path d="M 61.18764825044812 105.98466583148351 a46.0,46.0 0 0,1 -22.860985603445844,                     -5.410456683514243" fill="none" id="id19" stroke="none"><animate attributeName="opacity" dur="3s" keyTimes="0;0.5;1" repeatCount="indefinite" values="0;0;1" /></path><text fill="#FFFFFF" style="font-size:3.75px; font-family:Arial;" text-anchor="middle"><textPath startOffset="11.877802361517572" xlink:href="#id19">July</textPath><animate attributeName="opacity" dur="3s" keyTimes="0;0.5;1" repeatCount="indefinite" values="0;0;1" /></text><path d="M 59.90532303422443 70.99959255027892 l -0.07100772433167607 8.249694412709191 a19.25,19.25 0 0,0 -0.3313202842650544,-0.005703979160770312 l 0.21300213187384223 -8.247249850211718" fill="#3aff90" stroke="none"><animate attributeName="opacity" dur="3s" keyTimes="0;0.5;1" repeatCount="indefinite" values="0;0;1" /></path><path d="M 59.52675543695017 70.98981526612454 l -0.8802348872726908 20.441056394991627 a31.46,31.46 0 0,0 -0.5408302556053162,-0.027954746631482306 l 1.2319636549041202 -20.42287603529423" fill="#caff1d" stroke="none"><animate attributeName="opacity" dur="3s" keyTimes="0;0.5;1" repeatCount="indefinite" values="0;0;1" /></path><path d="M 58.39620883388138 70.88245624367403 l -1.4434120495067566 9.794210619306625 a20.9,20.9 0 0,0 -0.35546335478961866,-0.0555160655450233 l 1.6117894280913128 -9.767913535627404" fill="#36ff6e" stroke="none"><animate attributeName="opacity" dur="3s" keyTimes="0;0.5;1" repeatCount="indefinite" values="0;0;1" /></path><path d="M 57.83659821227066 70.78516076397796 l -2.0281891759962547 10.111088216229332 a21.3125,21.3125 0 0,0 -0.35907354658505686,-0.07524735289359957 l 2.201934440472895 -10.074678206764686" fill="#35ff65" stroke="none"><animate attributeName="opacity" dur="3s" keyTimes="0;0.5;1" repeatCount="indefinite" values="0;0;1" /></path><path d="M 57.28275601470971 70.65910808296847 l -3.056899483451574 11.991496593339528 a23.375,23.375 0 0,0 -0.3890374237753066,-0.10274831952517996 l 3.262860472509089 -11.937100424179139" fill="#30ff37" stroke="none"><animate attributeName="opacity" dur="3s" keyTimes="0;0.5;1" repeatCount="indefinite" values="0;0;1" /></path><path d="M 56.376506695530175 70.38606259717619 l -4.076429967528556 11.68432042182322 a23.375,23.375 0 0,0 -0.37876453668000665,-0.13581148705671364 l 4.276952369300324 -11.612420222793194" fill="#30ff37" stroke="none"><animate attributeName="opacity" dur="3s" keyTimes="0;0.5;1" repeatCount="indefinite" values="0;0;1" /></path><path d="M 54.8172454155875 69.70252827451439 l -15.548263753237498 29.107584823543174 a44.0,44.0 0 0,0 -0.6649807751323722,-0.36260053917001445 l 16.046999334586776 -28.835634419165665" fill="#ff0000" stroke="none"><animate attributeName="opacity" dur="3s" keyTimes="0;0.5;1" repeatCount="indefinite" values="0;0;1" /></path><line stroke="#FFFFFF" stroke-width="0.3" x1="38.11772818010894" x2="35.68636464456549" y1="99.32131966249864" y2="103.69035518055404"><animate attributeName="opacity" dur="3s" keyTimes="0;0.5;1" repeatCount="indefinite" values="0;0;1" /></line><path d="M 37.63145547300025 100.19512676610972 a46.0,46.0 0 0,1 -16.93027528149229,                     -16.28691140695599" fill="none" id="id20" stroke="none"><animate attributeName="opacity" dur="3s" keyTimes="0;0.5;1" repeatCount="indefinite" values="0;0;1" /></path><text fill="#FFFFFF" style="font-size:3.75px; font-family:Arial;" text-anchor="middle"><textPath startOffset="11.877802361517572" xlink:href="#id20">August</textPath><animate attributeName="opacity" dur="3s" keyTimes="0;0.5;1" repeatCount="indefinite" values="0;0;1" /></text><path d="M 54.161969470218736 69.32295015182115 l -7.793770757257989 12.446138452681229 a25.685000000000002,25.685000000000002 0 0,0 -0.3726993768773701,-0.2378743759838376 l 8.006855839969463 -12.310137471123017" fill="#ff8e00" stroke="none"><animate attributeName="opacity" dur="3s" keyTimes="0;0.5;1" repeatCount="indefinite" values="0;0;1" /></path><path d="M 53.5343622247828 68.89918693812442 l -7.492057772032934 10.311932864551673 a23.74625,23.74625 0 0,0 -0.32861986410467464,-0.24310511927325046 l 7.668450715880667 -10.18144158165283" fill="#30ff2f" stroke="none"><animate attributeName="opacity" dur="3s" keyTimes="0;0.5;1" repeatCount="indefinite" values="0;0;1" /></path><path d="M 52.651297493651136 68.18514333858496 l -9.920748383570965 11.049943507089713 a25.85,25.85 0 0,0 -0.3285417450610356,-0.30011509446366436 l 10.109485130733688 -10.877536963461651" fill="#ff8c00" stroke="none"><animate attributeName="opacity" dur="3s" keyTimes="0;0.5;1" repeatCount="indefinite" values="0;0;1" /></path><path d="M 51.97486690504864 67.52311363787072 l -10.65336418354793 9.986933354273377 a25.6025,25.6025 0 0,0 -0.29863925425187376,-0.3241139285213641 l 10.823694413416616 -9.802073530379882" fill="#ff8e00" stroke="none"><animate attributeName="opacity" dur="3s" keyTimes="0;0.5;1" repeatCount="indefinite" values="0;0;1" /></path><path d="M 51.59722525930403 67.09882924552505 l -11.973954005491748 10.115831674873204 a26.674999999999997,26.674999999999997 0 0,0 -0.29330305727809125,-0.35330242697573433 l 12.146307348428358 -9.908220970361691" fill="#ff8600" stroke="none"><animate attributeName="opacity" dur="3s" keyTimes="0;0.5;1" repeatCount="indefinite" values="0;0;1" /></path><path d="M 51.24198849839123 66.65561676613734 l -11.03509449202705 8.386077125333053 a24.86,24.86 0 0,0 -0.25598547190286597,-0.34293437216184103 l 11.177812056008293 -8.194883625809194" fill="#ff9400" stroke="none"><animate attributeName="opacity" dur="3s" keyTimes="0;0.5;1" repeatCount="indefinite" values="0;0;1" /></path><path d="M 50.804819726394996 66.03727254113191 l -12.861758407704995 8.444634966908271 a26.38625,26.38625 0 0,0 -0.2460142582722585,-0.3818195920986993 l 13.005213308698565 -8.221989774850718" fill="#ff8800" stroke="none"><animate attributeName="opacity" dur="3s" keyTimes="0;0.5;1" repeatCount="indefinite" values="0;0;1" /></path><line stroke="#FFFFFF" stroke-width="0.3" x1="21.158604237754" x2="16.842893597504442" y1="82.72324746246844" y2="85.24805273607605"><animate attributeName="opacity" dur="3s" keyTimes="0;0.5;1" repeatCount="indefinite" values="0;0;1" /></line><path d="M 20.29546210970409 83.22820851718997 a46.0,46.0 0 0,1 -6.274591021322525,                     -21.84267449423218" fill="none" id="id21" stroke="none"><animate attributeName="opacity" dur="3s" keyTimes="0;0.5;1" repeatCount="indefinite" values="0;0;1" /></path><text fill="#FFFFFF" style="font-size:3.75px; font-family:Arial;" text-anchor="middle"><textPath startOffset="11.481875616133665" xlink:href="#id21">September</textPath><animate attributeName="opacity" dur="3s" keyTimes="0;0.5;1" repeatCount="indefinite" values="0;0;1" /></text><path d="M 50.319865756291115 65.22446179273756 l -11.906565119761932 6.4260880050672 a24.53,24.53 0 0,0 -0.197346760630645,-0.37330569904463456 l 12.015415575177041 -6.220183964786975" fill="#3eff2d" stroke="none"><animate attributeName="opacity" dur="3s" keyTimes="0;0.5;1" repeatCount="indefinite" values="0;0;1" /></path><path d="M 50.23136945107558 65.05706013397315 l -6.96014926610865 3.603155345455869 a18.8375,18.8375 0 0,0 -0.14659282418577146,-0.28924154938336427 l 7.021140441134847 -3.4828139708949073" fill="#3bff99" stroke="none"><animate attributeName="opacity" dur="3s" keyTimes="0;0.5;1" repeatCount="indefinite" values="0;0;1" /></path><path d="M 49.76203675858223 64.02294775846997 l -22.881847844568725 8.991288240180364 a35.585,35.585 0 0,0 -0.21911162193642364,-0.572031303535337 l 23.033227898673175 -8.596082687351467" fill="#ffd714" stroke="none"><animate attributeName="opacity" dur="3s" keyTimes="0;0.5;1" repeatCount="indefinite" values="0;0;1" /></path><path d="M 49.56802261986611 63.48910417448017 l -15.726205900551836 5.2598245430288495 a27.5825,27.5825 0 0,0 -0.14672280887353825,-0.45156637339820177 l 15.814415126624361 -4.988344460118465" fill="#79ff26" stroke="none"><animate attributeName="opacity" dur="3s" keyTimes="0;0.5;1" repeatCount="indefinite" values="0;0;1" /></path><path d="M 49.45410401313974 63.12795106009104 l -13.841488482754093 4.10543576636949 a25.4375,25.4375 0 0,0 -0.1208976094861775,-0.42086043889770663 l 13.910106044894896 -3.8665690307788996" fill="#ff8f00" stroke="none"><animate attributeName="opacity" dur="3s" keyTimes="0;0.5;1" repeatCount="indefinite" values="0;0;1" /></path><path d="M 49.30669983708032 62.579405285274504 l -6.937278480694139 1.673389178821836 a18.13625,18.13625 0 0,0 -0.07059270529247472,-0.3041115268172343 l 6.965055291950238 -1.5537274029172532" fill="#3cffa7" stroke="none"><animate attributeName="opacity" dur="3s" keyTimes="0;0.5;1" repeatCount="indefinite" values="0;0;1" /></path><path d="M 49.26388394304395 62.394955534361856 l -5.354637883406828 1.1944840727629746 a16.48625,16.48625 0 0,0 -0.0594022835275804,-0.2775076926023938 l 5.374405615790068 -1.1021358080854475" fill="#40ffc8" stroke="none"><animate attributeName="opacity" dur="3s" keyTimes="0;0.5;1" repeatCount="indefinite" values="0;0;1" /></path><path d="M 49.097745296072 61.46316177187616 l -16.843983517568763 2.2605849375486673 a27.995,27.995 0 0,0 -0.05998727374449937,-0.4781575937487617 l 16.880400153299707 -1.9703085201255488" fill="#81ff25" stroke="none"><animate attributeName="opacity" dur="3s" keyTimes="0;0.5;1" repeatCount="indefinite" values="0;0;1" /></path><path d="M 49.074174658058446 61.27528059555052 l -13.889455465943204 1.6212004570935947 a24.98375,24.98375 0 0,0 -0.04618150832729024,-0.42758341157671786 l 13.915303894104378 -1.3818761150058005" fill="#ff9300" stroke="none"><animate attributeName="opacity" dur="3s" keyTimes="0;0.5;1" repeatCount="indefinite" values="0;0;1" /></path><path d="M 49.02291123048069 60.70959294394248 l -14.160444512679913 0.9153748976857974 a25.189999999999998,25.189999999999998 0 0,0 -0.024246753387765625,-0.432942069786206 l 14.174103164151623 -0.6714905002953145" fill="#ff9100" stroke="none"><animate attributeName="opacity" dur="3s" keyTimes="0;0.5;1" repeatCount="indefinite" values="0;0;1" /></path><line stroke="#FFFFFF" stroke-width="0.3" x1="15.003750360536792" x2="10.004167067263104" y1="60.580963323375435" y2="60.64551480375049"><animate attributeName="opacity" dur="3s" keyTimes="0;0.5;1" repeatCount="indefinite" values="0;0;1" /></line><path d="M 14.003833701882058 60.59387361945045 a46.0,46.0 0 0,1 5.705147861482751,                     -22.789229740466457" fill="none" id="id22" stroke="none"><animate attributeName="opacity" dur="3s" keyTimes="0;0.5;1" repeatCount="indefinite" values="0;0;1" /></path><text fill="#FFFFFF" style="font-size:3.75px; font-family:Arial;" text-anchor="middle"><textPath startOffset="11.877802361517572" xlink:href="#id22">October</textPath><animate attributeName="opacity" dur="3s" keyTimes="0;0.5;1" repeatCount="indefinite" values="0;0;1" /></text><path d="M 49.00010186290191 59.952661078741315 l -14.808612867068305 -0.06373002274450068 a25.80875,25.80875 0 0,0 0.005735678692888512,-0.44423463570389493 l 14.805321803694708 0.31862650790864283" fill="#ff8d00" stroke="none"><animate attributeName="opacity" dur="3s" keyTimes="0;0.5;1" repeatCount="indefinite" values="0;0;1" /></path><path d="M 49.0025464782212 59.76332292820157 l -12.37213521200115 -0.26626170577323915 a23.375,23.375 0 0,0 0.01211972105234746,-0.40219453828289314 l 12.365718889091083 0.47918822604065314" fill="#30ff37" stroke="none"><animate attributeName="opacity" dur="3s" keyTimes="0;0.5;1" repeatCount="indefinite" values="0;0;1" /></path><path d="M 49.13915613366615 58.25584676386553 l -13.033012639600624 -2.0929838833613674 a24.200000000000003,24.200000000000003 0 0,0 0.06959014053383823,-0.4107249487027126 l 12.995054381127622 2.317015673562847" fill="#38ff2e" stroke="none"><animate attributeName="opacity" dur="3s" keyTimes="0;0.5;1" repeatCount="indefinite" values="0;0;1" /></path><path d="M 49.427572377404694 56.96293329592784 l -15.858641433892963 -4.5556000561082355 a27.5,27.5 0 0,0 0.13461132521085994,-0.45384246973667486 l 15.777874638766447 4.82790553795024" fill="#77ff26" stroke="none"><animate attributeName="opacity" dur="3s" keyTimes="0;0.5;1" repeatCount="indefinite" values="0;0;1" /></path><path d="M 49.66158336263915 56.24272153915359 l -17.174694638815716 -6.241778843081093 a29.27375,29.27375 0 0,0 0.1761936989214514,-0.4721115151136817 l 17.064708060202936 6.536488191876811" fill="#9bff22" stroke="none"><animate attributeName="opacity" dur="3s" keyTimes="0;0.5;1" repeatCount="indefinite" values="0;0;1" /></path><path d="M 50.022848059171004 55.36789042124302 l -23.720678739320945 -11.012840523494724 a37.1525,37.1525 0 0,0 0.2742947953949679,-0.5777347929959585 l 23.527596318580297 11.41952134373096" fill="#ffb110" stroke="none"><animate attributeName="opacity" dur="3s" keyTimes="0;0.5;1" repeatCount="indefinite" values="0;0;1" /></path><line stroke="#FFFFFF" stroke-width="0.3" x1="20.964464037168135" x2="16.627182263520147" y1="37.61190199917689" y2="35.124335554640986"><animate attributeName="opacity" dur="3s" keyTimes="0;0.5;1" repeatCount="indefinite" values="0;0;1" /></line><path d="M 20.097007682438537 37.11438871026971 a46.0,46.0 0 0,1 15.825874378746152,                     -16.309954680929934" fill="none" id="id23" stroke="none"><animate attributeName="opacity" dur="3s" keyTimes="0;0.5;1" repeatCount="indefinite" values="0;0;1" /></path><text fill="#FFFFFF" style="font-size:3.75px; font-family:Arial;" text-anchor="middle"><textPath startOffset="11.481875616133665" xlink:href="#id23">November</textPath><animate attributeName="opacity" dur="3s" keyTimes="0;0.5;1" repeatCount="indefinite" values="0;0;1" /></text><path d="M 50.55359645896617 54.36391446658734 l -6.0220822574090676 -3.5930045275505695 a18.0125,18.0125 0 0,0 0.16115543730330834,-0.2648971659575034 l 5.959342354336788 3.6961324318546356" fill="#3dffaa" stroke="none"><animate attributeName="opacity" dur="3s" keyTimes="0;0.5;1" repeatCount="indefinite" values="0;0;1" /></path><path d="M 50.96375791367344 53.72733478039034 l -8.810336034168397 -6.115848589119413 a21.725,21.725 0 0,0 0.2158920635600355,-0.3053640133472355 l 8.70375640785395 6.266597912164251" fill="#34ff5c" stroke="none"><animate attributeName="opacity" dur="3s" keyTimes="0;0.5;1" repeatCount="indefinite" values="0;0;1" /></path><path d="M 51.29959777567545 53.26924958604403 l -6.525301668243413 -5.048062810466974 a19.25,19.25 0 0,0 0.20500875945552655,-0.2603403055430396 l 6.437440771333902 5.159637227128277" fill="#3aff90" stroke="none"><animate attributeName="opacity" dur="3s" keyTimes="0;0.5;1" repeatCount="indefinite" values="0;0;1" /></path><path d="M 51.65863610673581 52.82911104533416 l -5.6304206279533275 -4.8403500443994405 a18.425,18.425 0 0,0 0.20882380540848727,-0.23872170842670554 l 5.546267751146922 4.936551329884829" fill="#3cffa1" stroke="none"><animate attributeName="opacity" dur="3s" keyTimes="0;0.5;1" repeatCount="indefinite" values="0;0;1" /></path><path d="M 53.01024469020805 51.5062775705092 l -7.863474723515947 -9.555437733177156 a23.375,23.375 0 0,0 0.3128872885026096,-0.25299976078337433 l 7.697828511955742 9.689378783003649" fill="#30ff37" stroke="none"><animate attributeName="opacity" dur="3s" keyTimes="0;0.5;1" repeatCount="indefinite" values="0;0;1" /></path><path d="M 54.242428318978945 50.6271472678856 l -6.477268141148684 -10.544459323628702 a23.375,23.375 0 0,0 0.34465650962678335,-0.20765169066213215 l 6.294802930169799 10.654392571626301" fill="#30ff37" stroke="none"><animate attributeName="opacity" dur="3s" keyTimes="0;0.5;1" repeatCount="indefinite" values="0;0;1" /></path><line stroke="#FFFFFF" stroke-width="0.3" x1="37.109807526655274" x2="34.566452807394754" y1="21.256754284995267" y2="16.951949205550292"><animate attributeName="opacity" dur="3s" keyTimes="0;0.5;1" repeatCount="indefinite" values="0;0;1" /></line><path d="M 36.60113658280317 20.39579326910627 a46.0,46.0 0 0,1 22.607049034028407,                     -6.388977872725619" fill="none" id="id24" stroke="none"><animate attributeName="opacity" dur="3s" keyTimes="0;0.5;1" repeatCount="indefinite" values="0;0;1" /></path><text fill="#FFFFFF" style="font-size:3.75px; font-family:Arial;" text-anchor="middle"><textPath startOffset="11.877802361517572" xlink:href="#id24">December</textPath><animate attributeName="opacity" dur="3s" keyTimes="0;0.5;1" repeatCount="indefinite" values="0;0;1" /></text><path d="M 54.40461961762684 50.52942882522106 l -6.294802930169799 -10.654392571626301 a23.375,23.375 0 0,0 0.34817982755348165,-0.20168822957179272 l 6.11047243322972 10.76116869316431" fill="#30ff37" stroke="none"><animate attributeName="opacity" dur="3s" keyTimes="0;0.5;1" repeatCount="indefinite" values="0;0;1" /></path><path d="M 55.06947724085548 50.16689543828818 l -4.12314965733461 -8.222933689731512 a20.19875,20.19875 0 0,0 0.3121464164511028,-0.15316889091555508 l 3.980994481973284 8.292688616908167" fill="#38ff7d" stroke="none"><animate attributeName="opacity" dur="3s" keyTimes="0;0.5;1" repeatCount="indefinite" values="0;0;1" /></path><path d="M 55.23946848194525 50.08348147454928 l -4.462998298176327 -9.296736117610052 a21.3125,21.3125 0 0,0 0.33209116055605215,-0.15592125273737326 l 4.302309026939527 9.37218188506362" fill="#35ff65" stroke="none"><animate attributeName="opacity" dur="3s" keyTimes="0;0.5;1" repeatCount="indefinite" values="0;0;1" /></path><path d="M 55.75770253132032 49.85096496275464 l -4.13624003196269 -9.895309161314229 a21.725,21.725 0 0,0 0.3462718063424969,-0.14125296417437097 l 3.9652957225024705 9.965041637299045" fill="#34ff5c" stroke="none"><animate attributeName="opacity" dur="3s" keyTimes="0;0.5;1" repeatCount="indefinite" values="0;0;1" /></path><path d="M 56.10956265605991 49.71095255755537 l -3.6472850099438374 -9.64598197729184 a21.3125,21.3125 0 0,0 0.34426555628438754,-0.12679590975608354 l 3.480704902064295 9.707334836851235" fill="#35ff65" stroke="none"><animate attributeName="opacity" dur="3s" keyTimes="0;0.5;1" repeatCount="indefinite" values="0;0;1" /></path><path d="M 57.37459957393455 49.31789942928754 l -2.461312899436359 -10.014469285042926 a21.3125,21.3125 0 0,0 0.35701107960052353,-0.08449298797608035 l 2.2885656028554604 10.055352988902321" fill="#35ff65" stroke="none"><animate attributeName="opacity" dur="3s" keyTimes="0;0.5;1" repeatCount="indefinite" values="0;0;1" /></path><path d="M 57.55886335695418 49.27429014517086 l -2.1054803546270233 -9.250924749790132 a20.487499999999997,20.487499999999997 0 0,0 0.3445385566145114,-0.07530278370289999 l 1.9459289425035247 9.285796508686106" fill="#37ff76" stroke="none"><animate attributeName="opacity" dur="3s" keyTimes="0;0.5;1" repeatCount="indefinite" values="0;0;1" /></path><path d="M 57.92950619172431 49.196618335451994 l -2.174018498689477 -11.343550747775403 a22.549999999999997,22.549999999999997 0 0,0 0.3818519056728455,-0.06978099502575708 l 1.9784358152960682 11.379292233032498" fill="#32ff49" stroke="none"><animate attributeName="opacity" dur="3s" keyTimes="0;0.5;1" repeatCount="indefinite" values="0;0;1" /></path><path d="M 58.67771150610711 49.07976405296486 l -1.3388171000665514 -11.056738896373082 a22.137500000000003,22.137500000000003 0 0,0 0.378691766716839,-0.04255043238307743 l 1.1482951553208125 11.078146256764569" fill="#33ff53" stroke="none"><animate attributeName="opacity" dur="3s" keyTimes="0;0.5;1" repeatCount="indefinite" values="0;0;1" /></path></svg>